<svg xmlns="http://www.w3.org/2000/svg" xmlns:xlink="http://www.w3.org/1999/xlink" width="51.361" height="51.159" viewBox="0 0 51.361 51.159"><defs><filter id="a" x="0" y="0" width="51.361" height="51.159" filterUnits="userSpaceOnUse"><feOffset dx="6" dy="5" input="SourceAlpha"/><feGaussianBlur stdDeviation="3" result="b"/><feFlood flood-color="#00a3e0" flood-opacity="0.251"/><feComposite operator="in" in2="b"/><feComposite in="SourceGraphic"/></filter></defs><g transform="matrix(1, 0, 0, 1, 0, 0)" filter="url(#a)"><path d="M33.923,17.243A16.68,16.68,0,1,0,14.637,33.722V22.065H10.4V17.243h4.237V13.568c0-4.18,2.489-6.489,6.3-6.489a25.671,25.671,0,0,1,3.734.326v4.1h-2.1a2.411,2.411,0,0,0-2.718,2.6v3.131h4.626l-.74,4.822H19.849V33.722A16.686,16.686,0,0,0,33.923,17.243Z" transform="translate(2.44 3.44)" fill="#00a3e0"/></g></svg>