<svg xmlns="http://www.w3.org/2000/svg" xmlns:xlink="http://www.w3.org/1999/xlink" width="54.159" height="54.159" viewBox="0 0 54.159 54.159"><defs><filter id="a" x="0" y="0" width="54.159" height="54.159" filterUnits="userSpaceOnUse"><feOffset dx="1" dy="4" input="SourceAlpha"/><feGaussianBlur stdDeviation="3.5" result="b"/><feFlood flood-color="#00a3e0" flood-opacity="0.349"/><feComposite operator="in" in2="b"/><feComposite in="SourceGraphic"/></filter></defs><g transform="matrix(1, 0, 0, 1, 0, 0)" filter="url(#a)"><path d="M16.58.562a16.58,16.58,0,1,0,16.58,16.58A16.585,16.585,0,0,0,16.58.562ZM11.853,25.432a8.29,8.29,0,1,1,0-16.58A8.007,8.007,0,0,1,17.4,11.012l-2.246,2.179a4.7,4.7,0,0,0-3.3-1.277,5.222,5.222,0,0,0,0,10.442,4.494,4.494,0,0,0,4.686-3.563H11.853V15.945h7.815a7.3,7.3,0,0,1,.127,1.384c0,4.733-3.176,8.1-7.942,8.1Zm15.39-7.1v2.373H24.869V18.332H22.5V15.959h2.373V13.586h2.373v2.373H29.6v2.373Z" transform="translate(9.5 5.94)" fill="#00a3e0"/></g></svg>