<svg xmlns="http://www.w3.org/2000/svg" width="236.561" height="109.342" viewBox="0 0 236.561 109.342"><g transform="translate(-1767.133 -98.579)"><g transform="translate(932.133 -1153.421)"><path d="M48.452,0A48.452,48.452,0,1,1,0,48.452,48.452,48.452,0,0,1,48.452,0Z" transform="translate(967.329 1252)" fill="#d5d5d5"/><g transform="translate(960 1264.52)"><path d="M823.143,565.819l-9.056-13.452s13.715,4.788,12.158,13.452Z" transform="translate(-725.903 -489.497)" fill="#bbb6b6"/><path d="M319.006,500.436l-.344-.007a79.739,79.739,0,0,1,1.22-11.395c1.487-8.059,3.959-13.351,7.347-15.73l.2.281C319.511,479.143,319.01,500.224,319.006,500.436Z" transform="translate(-311.243 -424.024)" fill="#e5e5e5"/><circle cx="2.172" cy="2.172" r="2.172" transform="translate(24.946 50.187)" fill="#6c63ff"/><circle cx="5.196" cy="5.196" r="5.196" transform="translate(15.57 60.937)" fill="#6c63ff"/><path d="M330.01,463.95a7.635,7.635,0,0,1-.519,3.909,6.958,6.958,0,0,1-1.17-7.472A7.635,7.635,0,0,1,330.01,463.95Z" transform="translate(-318.75 -413.328)" fill="#e5e5e5"/><path d="M354.709,498.388a7.636,7.636,0,0,1-3.94.17,6.958,6.958,0,0,1,7.154-2.454A7.634,7.634,0,0,1,354.709,498.388Z" transform="translate(-337.831 -442.754)" fill="#e5e5e5"/><path d="M360.755,578.022a5.349,5.349,0,0,1-2.761.119,4.878,4.878,0,0,1,5.015-1.72A5.348,5.348,0,0,1,360.755,578.022Z" transform="translate(-335.906 -509.297)" fill="#e5e5e5"/><path d="M2.253,1.746a5.352,5.352,0,0,0,2.761.119A4.877,4.877,0,0,0,0,.145a5.352,5.352,0,0,0,2.253,1.6Z" transform="matrix(0.819, 0.574, -0.574, 0.819, 19.322, 64.464)" fill="#e5e5e5"/><path d="M331.781,502.47l-1.406,3.66-14.787-3.683,2.076-5.4Z" transform="translate(-261.339 -417.879)" fill="#ffb7b7"/><path d="M670.244,672.442l-4.534,11.8-.149-.057a4.921,4.921,0,0,1-2.829-6.358h0l2.77-7.208Z" transform="translate(-595.896 -587.422)" fill="#2f2e41"/><path d="M521.991,412.112l-6.444.6-.32,19.174a3.609,3.609,0,0,0,3.842,3.274l4.086-.281Z" transform="translate(-474.019 -373.351)" fill="#e5e5e5"/><path d="M664.237,406.349l-4.409-.057-.261,22.782h0a7.1,7.1,0,0,0,7.328-7.366Z" transform="translate(-593.547 -368.531)" fill="#e5e5e5"/><path d="M527.956,373.38l-5.459,4.145s-5.76.18-5.565,3.862,2.5,21.115,2.5,21.115l.5,6,9.488,2.7a31.042,31.042,0,0,0,15.726.337h0l-1.127-6.018s4.565-27.33,1.815-28.533a8.2,8.2,0,0,0-4.469-.86l-3.447-3.008Z" transform="translate(-475.426 -341.064)" fill="#ecd8d8"/><path d="M568.02,263.809c0,5.38-4.975,4.567-11.112,4.567s-11.112.814-11.112-4.567,2.43-14.918,11.112-14.918C565.889,248.891,568.02,258.429,568.02,263.809Z" transform="translate(-499.333 -238.188)" fill="#2f2e41"/><circle cx="7.478" cy="7.478" r="7.478" transform="translate(47.49 22.158) rotate(-45)" fill="#ffb7b7"/><path d="M559.964,276.289h2.958l1.3-3.653.261,3.653H565.9l.761-2.131.152,2.131h10.5a7.916,7.916,0,0,0-7.916-7.916H567.88a7.915,7.915,0,0,0-7.916,7.916Z" transform="translate(-511.066 -254.32)" fill="#2f2e41"/><rect width="14.955" height="18.049" transform="translate(50.123 33.176)" fill="#6c63ff"/><path d="M296.381,501.47l1.406,3.66,14.787-3.683-2.076-5.4Z" transform="translate(-245.434 -417.051)" fill="#ffb7b7"/><path d="M553.9,669.62l2.77,7.208h0a4.921,4.921,0,0,1-2.829,6.358l-.149.057-4.535-11.8Z" transform="translate(-502.114 -586.594)" fill="#2f2e41"/><circle cx="5.371" cy="5.371" r="5.371" transform="translate(93.35 25.154)" fill="#fff"/><circle cx="3.768" cy="3.768" r="3.768" transform="translate(86.789 17.147)" fill="#f1f1f1"/><circle cx="3.021" cy="3.021" r="3.021" transform="translate(21.425 17.08)" fill="#f1f1f1"/><circle cx="2.119" cy="2.119" r="2.119" transform="translate(29.29 11.933)" fill="#f1f1f1"/><circle cx="1.622" cy="1.622" r="1.622" transform="translate(61.401 0)" fill="#fff"/><path d="M537.087,438.945l.206-1.594s7.7.562,6.5,2.453-4.125,2.063-4.125,2.063Z" transform="translate(-492.121 -394.252)" fill="#2f2e41" opacity="0.17"/><path d="M530.011,406.228a3.007,3.007,0,0,1,2.187,1.343h0a3,3,0,0,1-.977,4.222,2.911,2.911,0,0,1-.4.2l-4.733,14.478a2.4,2.4,0,0,1-4.324-2.105l5.034-14.318a3,3,0,0,1,3.211-3.817Z" transform="translate(-479.232 -368.463)" fill="#ffb7b7"/><path d="M519.767,438.142s2.712,4.634,6.633,2.317L522.6,455h-3.2l-3.312-.619.927-6.008Z" transform="translate(-474.731 -394.907)" fill="#e5e5e5"/><path d="M639.333,430.69l-2.247-3.085s1.08-3.2,5.267-2.029C642.353,425.576,645.018,431.54,639.333,430.69Z" transform="translate(-574.931 -384.288)" fill="#e5e5e5"/><path d="M639.333,430.69l-2.247-3.085s1.08-3.2,5.267-2.029C642.353,425.576,645.018,431.54,639.333,430.69Z" transform="translate(-574.931 -384.288)" fill="#2f2e41" opacity="0.17"/><path d="M632.985,392.491a2.984,2.984,0,0,1,1.6,3.549l5.034,14.318a2.4,2.4,0,0,1-4.324,2.105l-4.733-14.478a2.906,2.906,0,0,1-.4-.2,3,3,0,0,1-.977-4.222h0a3.007,3.007,0,0,1,2.187-1.343A2.969,2.969,0,0,1,632.985,392.491Z" transform="translate(-567.988 -356.866)" fill="#ffb7b7"/><path d="M637.087,428.845a3.437,3.437,0,0,0,5.267-2.029l5.224,13.754-1.552,2.715-.224.019a5.741,5.741,0,0,1-4.913-2.078h0a11.4,11.4,0,0,1-2.382-5.067Z" transform="translate(-574.932 -385.527)" fill="#e5e5e5"/><path d="M344.006,573.623l-.344-.007c.007-.381.222-9.354,3.755-11.834l.2.281C344.224,564.444,344.008,573.531,344.006,573.623Z" transform="translate(-324.834 -493.457)" fill="#e5e5e5"/><path d="M386.889,630.966H275.672a.172.172,0,1,1,0-.344H386.889a.172.172,0,1,1,0,.344Z" transform="translate(-275.5 -554.3)" fill="#635e5e"/><path d="M530.977,570.705a14.024,14.024,0,0,1-.454,1.953c-.222.626-.566,1.2-.77,1.836a6.139,6.139,0,0,0,1.686,5.817,9.494,9.494,0,0,0,4.628,2.748,18.871,18.871,0,0,0,3.977.418c3.7.125,7.488.238,10.99-.95a19.107,19.107,0,0,0,3.193-1.451,2.39,2.39,0,0,0,.829-.652,2.281,2.281,0,0,0,.3-1.338c-.008-1.567-.325-3.126-.25-4.691a18.582,18.582,0,0,0,.124-2.6,4.792,4.792,0,0,0-3.662-4.128,9.947,9.947,0,0,0-3.035,0,77.427,77.427,0,0,1-7.9.353c-2.695-.017-5.374-.429-8.055-.472-.793-.013-.777.232-1.029,1A18.69,18.69,0,0,0,530.977,570.705Z" transform="translate(-485.871 -502.069)" fill="#2f2e41"/><path d="M440.706,577.344a7.982,7.982,0,0,0-2.218-.236,5.537,5.537,0,0,0-5.14,6.527,9.3,9.3,0,0,0,.879,2.4,8.03,8.03,0,0,0,2.383,3.15,9.29,9.29,0,0,0,2.1,1l5.736,2.161c.844.318,1.688.636,2.54.931a49.692,49.692,0,0,0,13.267,2.637,14.372,14.372,0,0,0,4.119-.209,1.341,1.341,0,0,0,.844-.456,1.444,1.444,0,0,0,.189-.623l.353-2.471a2.068,2.068,0,0,0-.03-1.042,2,2,0,0,0-.953-.9c-3.771-2.166-8.174-3.361-11.348-6.333-.747-.7-1.373-1.809-2.28-2.285-1.03-.539-2.242-.847-3.306-1.343A36.6,36.6,0,0,0,440.706,577.344Z" transform="translate(-406.139 -509.981)" fill="#2f2e41"/><path d="M497.532,595.146c2.027.635,10.587,5.037,12.054,6.573-.2.071-6.869-3.669-7.069-3.729a40.312,40.312,0,0,1-5.378-1.9c-.348-.161-2.259-.917-2.172-1.355C495.064,594.245,497.172,595.034,497.532,595.146Z" transform="translate(-457.239 -524.452)" opacity="0.1"/><path d="M624.456,568.859a10.322,10.322,0,0,1,3.637-.248,3.833,3.833,0,0,1,3.849,4.327,10.234,10.234,0,0,1-2.225,6.536,5.919,5.919,0,0,1-1.272,1.224,8.369,8.369,0,0,1-1.655.8l-12.846,5.066a82.967,82.967,0,0,1-10.3,3.549.8.8,0,0,1-1.071-.374l-.008-.018a26.614,26.614,0,0,1-2.815-5.15.347.347,0,0,1,.153-.547l9.086-5.22a9.191,9.191,0,0,0,1.849-1.274,4.586,4.586,0,0,0,.949-1.322c.188-.393.206-1.322.447-1.612s1.041-.307,1.413-.419a12.785,12.785,0,0,0,1.539-.582c2.033-.909,3.842-2.23,5.791-3.295A14.847,14.847,0,0,1,624.456,568.859Z" transform="translate(-543.951 -502.897)" fill="#2f2e41"/><path d="M643.615,588.239c-1.561,1.172-3.582,2.25-5.129,3.453-.528.411-9.33,5.359-9.454,6.016,1.443.243,10.637-6.189,11.953-6.83a21.252,21.252,0,0,0,3.637-2.445c.295-.229,1.543-.917.7-1.173C644.842,587.116,643.966,588,643.615,588.239Z" transform="translate(-568.261 -518.379)" opacity="0.1"/></g></g><text transform="translate(1767.133 169.25)" fill="#00a3e0" font-size="44" font-family="Cairo-Bold, Cairo" font-weight="700" letter-spacing="0.03em"><tspan x="0" y="0">أبنائي</tspan></text></g></svg>