<svg xmlns="http://www.w3.org/2000/svg" xmlns:xlink="http://www.w3.org/1999/xlink" width="54.159" height="54.159" viewBox="0 0 54.159 54.159"><defs><filter id="a" x="0" y="0" width="54.159" height="54.159" filterUnits="userSpaceOnUse"><feOffset dx="2" dy="5" input="SourceAlpha"/><feGaussianBlur stdDeviation="3.5" result="b"/><feFlood flood-color="#00a3e0" flood-opacity="0.412"/><feComposite operator="in" in2="b"/><feComposite in="SourceGraphic"/></filter></defs><g transform="translate(8.5 5.5)"><g transform="matrix(1, 0, 0, 1, -8.5, -5.5)" filter="url(#a)"><circle cx="16.58" cy="16.58" r="16.58" transform="translate(8.5 5.5)" fill="#00a3e0"/></g><path d="M24.425,4.5A11.358,11.358,0,0,1,21.153,6.09a4.668,4.668,0,0,0-8.191,3.126v1.042a11.108,11.108,0,0,1-9.378-4.72s-4.168,9.378,5.21,13.547A12.129,12.129,0,0,1,1.5,21.168c9.378,5.21,20.841,0,20.841-11.984a4.689,4.689,0,0,0-.083-.865A8.045,8.045,0,0,0,24.425,4.5Z" transform="translate(4.501 4.157)" fill="#fff"/></g></svg>